{
	"asset":{
		"generator":"Khronos glTF Blender I/O v5.0.21",
		"version":"2.0"
	},
	"scene":0,
	"scenes":[
		{
			"name":"Scene",
			"nodes":[
				10
			]
		}
	],
	"nodes":[
		{
			"mesh":0,
			"name":"Cube.001"
		},
		{
			"mesh":1,
			"name":"Cube.002"
		},
		{
			"mesh":2,
			"name":"Cylinder",
			"rotation":[
				-0.10052032768726349,
				0,
				0,
				0.9949350357055664
			],
			"scale":[
				0.059010230004787445,
				0.059010230004787445,
				0.059010230004787445
			],
			"translation":[
				-0.6691935062408447,
				2.453597068786621,
				-1.0329468250274658
			]
		},
		{
			"mesh":3,
			"name":"Cylinder.001",
			"rotation":[
				-0.10052059590816498,
				0,
				0,
				0.9949349761009216
			],
			"scale":[
				0.08546766638755798,
				0.014676856808364391,
				0.08546767383813858
			],
			"translation":[
				0.6455292701721191,
				2.396190881729126,
				-1.0721979141235352
			]
		},
		{
			"mesh":4,
			"name":"Cylinder.002",
			"rotation":[
				-0.10052032768726349,
				0,
				0,
				0.9949350357055664
			],
			"scale":[
				0.059010230004787445,
				0.059010230004787445,
				0.059010230004787445
			],
			"translation":[
				-0.5514448881149292,
				2.432044267654419,
				-1.1385202407836914
			]
		},
		{
			"mesh":5,
			"name":"Cylinder.004",
			"rotation":[
				-0.10052032768726349,
				0,
				0,
				0.9949350357055664
			],
			"scale":[
				0.059010230004787445,
				0.059010230004787445,
				0.059010230004787445
			],
			"translation":[
				-0.4425830841064453,
				2.454707622528076,
				-1.027504801750183
			]
		},
		{
			"mesh":6,
			"name":"Cylinder.006",
			"rotation":[
				-0.10052060335874557,
				0,
				0,
				0.9949349761009216
			],
			"scale":[
				0.059010230004787445,
				0.059010230004787445,
				0.059010230004787445
			],
			"translation":[
				-0.5603315830230713,
				2.4762604236602783,
				-0.9219313263893127
			]
		},
		{
			"mesh":7,
			"name":"Sphere",
			"rotation":[
				-0.10052059590816498,
				0,
				0,
				0.9949349761009216
			],
			"scale":[
				0.05401083081960678,
				0.05401083827018738,
				0.05401083827018738
			],
			"translation":[
				0.6455292701721191,
				2.6124207973480225,
				-1.1158995628356934
			]
		},
		{
			"mesh":8,
			"name":"Text",
			"rotation":[
				0,
				0.8755877017974854,
				-0.483059287071228,
				1.4866706976590649e-08
			],
			"scale":[
				0.45660874247550964,
				0.45660871267318726,
				0.45660871267318726
			],
			"translation":[
				0.577750563621521,
				4.577088356018066,
				-0.11001288145780563
			]
		},
		{
			"mesh":9,
			"name":"Text.001",
			"rotation":[
				0,
				0.8755877017974854,
				-0.483059287071228,
				1.4866709641125908e-08
			],
			"scale":[
				0.37390831112861633,
				0.45660871267318726,
				0.45660871267318726
			],
			"translation":[
				0.8114264607429504,
				4.303193092346191,
				-0.2893693447113037
			]
		},
		{
			"children":[
				0,
				1,
				2,
				3,
				4,
				5,
				6,
				7,
				8,
				9
			],
			"mesh":10,
			"name":"Cube",
			"rotation":[
				0,
				-0.7071068286895752,
				0,
				0.7071068286895752
			],
			"translation":[
				-1.0344994068145752,
				0.9697244763374329,
				-0.7680724263191223
			]
		}
	],
	"materials":[
		{
			"doubleSided":true,
			"name":"Material",
			"pbrMetallicRoughness":{
				"baseColorFactor":[
					0.000831848883535713,
					0,
					0.3426973819732666,
					1
				],
				"metallicFactor":0,
				"roughnessFactor":0.5
			}
		},
		{
			"doubleSided":true,
			"name":"Material.007",
			"pbrMetallicRoughness":{
				"baseColorFactor":[
					0,
					0,
					0,
					1
				],
				"metallicFactor":0,
				"roughnessFactor":0.5
			}
		},
		{
			"doubleSided":true,
			"name":"Material.006",
			"pbrMetallicRoughness":{
				"baseColorFactor":[
					0.0009105810313485563,
					0.1119324341416359,
					0.7991030812263489,
					1
				],
				"metallicFactor":0,
				"roughnessFactor":0.5
			}
		},
		{
			"doubleSided":true,
			"name":"Material.002",
			"pbrMetallicRoughness":{
				"baseColorFactor":[
					0.04735399782657623,
					0,
					0.07198886573314667,
					1
				],
				"metallicFactor":0,
				"roughnessFactor":0.5
			}
		},
		{
			"doubleSided":true,
			"name":"Material.005",
			"pbrMetallicRoughness":{
				"baseColorFactor":[
					0.0009105810313485563,
					0.1119324341416359,
					0.7991030812263489,
					1
				],
				"metallicFactor":0,
				"roughnessFactor":0.5
			}
		},
		{
			"doubleSided":true,
			"name":"Material.004",
			"pbrMetallicRoughness":{
				"baseColorFactor":[
					0.0009105810313485563,
					0.1119324341416359,
					0.7991030812263489,
					1
				],
				"metallicFactor":0,
				"roughnessFactor":0.5
			}
		},
		{
			"doubleSided":true,
			"name":"Material.003",
			"pbrMetallicRoughness":{
				"baseColorFactor":[
					0.0009105810313485563,
					0.1119324341416359,
					0.7991030812263489,
					1
				],
				"metallicFactor":0,
				"roughnessFactor":0.5
			}
		},
		{
			"doubleSided":true,
			"name":"Material.001",
			"pbrMetallicRoughness":{
				"baseColorFactor":[
					0.8000074625015259,
					0.01048305630683899,
					0.014319119974970818,
					1
				],
				"metallicFactor":0,
				"roughnessFactor":0.5
			}
		},
		{
			"doubleSided":true,
			"name":"Material.008",
			"pbrMetallicRoughness":{
				"baseColorFactor":[
					0.9463023543357849,
					1,
					0.07217378914356232,
					1
				],
				"metallicFactor":0,
				"roughnessFactor":0.5
			}
		},
		{
			"doubleSided":true,
			"name":"Material.009",
			"pbrMetallicRoughness":{
				"baseColorFactor":[
					0.9463023543357849,
					1,
					0.07217378914356232,
					1
				],
				"metallicFactor":0,
				"roughnessFactor":0.5
			}
		}
	],
	"meshes":[
		{
			"name":"Cube.001",
			"primitives":[
				{
					"attributes":{
						"POSITION":0,
						"NORMAL":1,
						"TEXCOORD_0":2
					},
					"indices":3,
					"material":0
				}
			]
		},
		{
			"name":"Cube.002",
			"primitives":[
				{
					"attributes":{
						"POSITION":4,
						"NORMAL":5,
						"TEXCOORD_0":6
					},
					"indices":3,
					"material":1
				}
			]
		},
		{
			"name":"Cylinder",
			"primitives":[
				{
					"attributes":{
						"POSITION":7,
						"NORMAL":8,
						"TEXCOORD_0":9
					},
					"indices":10,
					"material":2
				}
			]
		},
		{
			"name":"Cylinder.007",
			"primitives":[
				{
					"attributes":{
						"POSITION":11,
						"NORMAL":12,
						"TEXCOORD_0":13
					},
					"indices":14,
					"material":3
				}
			]
		},
		{
			"name":"Cylinder.002",
			"primitives":[
				{
					"attributes":{
						"POSITION":15,
						"NORMAL":16,
						"TEXCOORD_0":17
					},
					"indices":10,
					"material":4
				}
			]
		},
		{
			"name":"Cylinder.004",
			"primitives":[
				{
					"attributes":{
						"POSITION":18,
						"NORMAL":19,
						"TEXCOORD_0":20
					},
					"indices":10,
					"material":5
				}
			]
		},
		{
			"name":"Cylinder.006",
			"primitives":[
				{
					"attributes":{
						"POSITION":21,
						"NORMAL":22,
						"TEXCOORD_0":23
					},
					"indices":10,
					"material":6
				}
			]
		},
		{
			"name":"Sphere",
			"primitives":[
				{
					"attributes":{
						"POSITION":24,
						"NORMAL":25,
						"TEXCOORD_0":26
					},
					"indices":27,
					"material":7
				}
			]
		},
		{
			"name":"ButtonReaction",
			"primitives":[
				{
					"attributes":{
						"POSITION":28,
						"NORMAL":29,
						"TEXCOORD_0":30
					},
					"indices":31,
					"material":8
				}
			]
		},
		{
			"name":"ButtonReaction.001",
			"primitives":[
				{
					"attributes":{
						"POSITION":32,
						"NORMAL":33,
						"TEXCOORD_0":34
					},
					"indices":35,
					"material":9
				}
			]
		},
		{
			"name":"Cube",
			"primitives":[
				{
					"attributes":{
						"POSITION":36,
						"NORMAL":37,
						"TEXCOORD_0":38
					},
					"indices":39,
					"material":0
				}
			]
		}
	],
	"accessors":[
		{
			"bufferView":0,
			"componentType":5126,
			"count":24,
			"max":[
				0.665371298789978,
				3.796006202697754,
				0.2557043433189392
			],
			"min":[
				-0.665371298789978,
				2.506110429763794,
				-0.5231007933616638
			],
			"type":"VEC3"
		},
		{
			"bufferView":1,
			"componentType":5126,
			"count":24,
			"type":"VEC3"
		},
		{
			"bufferView":2,
			"componentType":5126,
			"count":24,
			"type":"VEC2"
		},
		{
			"bufferView":3,
			"componentType":5123,
			"count":66,
			"type":"SCALAR"
		},
		{
			"bufferView":4,
			"componentType":5126,
			"count":24,
			"max":[
				0.665371298789978,
				3.796006202697754,
				0.2557043433189392
			],
			"min":[
				-0.665371298789978,
				2.506110429763794,
				-0.5231007933616638
			],
			"type":"VEC3"
		},
		{
			"bufferView":5,
			"componentType":5126,
			"count":24,
			"type":"VEC3"
		},
		{
			"bufferView":6,
			"componentType":5126,
			"count":24,
			"type":"VEC2"
		},
		{
			"bufferView":7,
			"componentType":5126,
			"count":295,
			"max":[
				1.282970666885376,
				-0.535773754119873,
				1.2829701900482178
			],
			"min":[
				-1.2829707860946655,
				-1.0466220378875732,
				-1.2829711437225342
			],
			"type":"VEC3"
		},
		{
			"bufferView":8,
			"componentType":5126,
			"count":295,
			"type":"VEC3"
		},
		{
			"bufferView":9,
			"componentType":5126,
			"count":295,
			"type":"VEC2"
		},
		{
			"bufferView":10,
			"componentType":5123,
			"count":1332,
			"type":"SCALAR"
		},
		{
			"bufferView":11,
			"componentType":5126,
			"count":194,
			"max":[
				1,
				11.901773452758789,
				1
			],
			"min":[
				-1,
				-1,
				-1
			],
			"type":"VEC3"
		},
		{
			"bufferView":12,
			"componentType":5126,
			"count":194,
			"type":"VEC3"
		},
		{
			"bufferView":13,
			"componentType":5126,
			"count":194,
			"type":"VEC2"
		},
		{
			"bufferView":14,
			"componentType":5123,
			"count":756,
			"type":"SCALAR"
		},
		{
			"bufferView":15,
			"componentType":5126,
			"count":295,
			"max":[
				1.282970666885376,
				-0.535773754119873,
				1.2829701900482178
			],
			"min":[
				-1.2829707860946655,
				-1.0466220378875732,
				-1.2829711437225342
			],
			"type":"VEC3"
		},
		{
			"bufferView":16,
			"componentType":5126,
			"count":295,
			"type":"VEC3"
		},
		{
			"bufferView":17,
			"componentType":5126,
			"count":295,
			"type":"VEC2"
		},
		{
			"bufferView":18,
			"componentType":5126,
			"count":295,
			"max":[
				1.282970666885376,
				-0.535773754119873,
				1.2829701900482178
			],
			"min":[
				-1.2829707860946655,
				-1.0466220378875732,
				-1.2829711437225342
			],
			"type":"VEC3"
		},
		{
			"bufferView":19,
			"componentType":5126,
			"count":295,
			"type":"VEC3"
		},
		{
			"bufferView":20,
			"componentType":5126,
			"count":295,
			"type":"VEC2"
		},
		{
			"bufferView":21,
			"componentType":5126,
			"count":295,
			"max":[
				1.282970666885376,
				-0.535773754119873,
				1.2829701900482178
			],
			"min":[
				-1.2829707860946655,
				-1.0466220378875732,
				-1.2829711437225342
			],
			"type":"VEC3"
		},
		{
			"bufferView":22,
			"componentType":5126,
			"count":295,
			"type":"VEC3"
		},
		{
			"bufferView":23,
			"componentType":5126,
			"count":295,
			"type":"VEC2"
		},
		{
			"bufferView":24,
			"componentType":5126,
			"count":559,
			"max":[
				0.9999997019767761,
				1,
				0.9999993443489075
			],
			"min":[
				-0.9999990463256836,
				-1,
				-1
			],
			"type":"VEC3"
		},
		{
			"bufferView":25,
			"componentType":5126,
			"count":559,
			"type":"VEC3"
		},
		{
			"bufferView":26,
			"componentType":5126,
			"count":559,
			"type":"VEC2"
		},
		{
			"bufferView":27,
			"componentType":5123,
			"count":2880,
			"type":"SCALAR"
		},
		{
			"bufferView":28,
			"componentType":5126,
			"count":246,
			"max":[
				2.508634567260742,
				0,
				0.011078527197241783
			],
			"min":[
				0.025415444746613503,
				0,
				-0.5275334119796753
			],
			"type":"VEC3"
		},
		{
			"bufferView":29,
			"componentType":5126,
			"count":246,
			"type":"VEC3"
		},
		{
			"bufferView":30,
			"componentType":5126,
			"count":246,
			"type":"VEC2"
		},
		{
			"bufferView":31,
			"componentType":5123,
			"count":696,
			"type":"SCALAR"
		},
		{
			"bufferView":32,
			"componentType":5126,
			"count":1445,
			"max":[
				4.346366882324219,
				0,
				0.011078527197241783
			],
			"min":[
				0.027370478957891464,
				0,
				-0.5386119484901428
			],
			"type":"VEC3"
		},
		{
			"bufferView":33,
			"componentType":5126,
			"count":1445,
			"type":"VEC3"
		},
		{
			"bufferView":34,
			"componentType":5126,
			"count":1445,
			"type":"VEC2"
		},
		{
			"bufferView":35,
			"componentType":5123,
			"count":4281,
			"type":"SCALAR"
		},
		{
			"bufferView":36,
			"componentType":5126,
			"count":666,
			"max":[
				1,
				4.8642683029174805,
				1
			],
			"min":[
				-1,
				-1,
				-1.4571641683578491
			],
			"type":"VEC3"
		},
		{
			"bufferView":37,
			"componentType":5126,
			"count":666,
			"type":"VEC3"
		},
		{
			"bufferView":38,
			"componentType":5126,
			"count":666,
			"type":"VEC2"
		},
		{
			"bufferView":39,
			"componentType":5123,
			"count":1935,
			"type":"SCALAR"
		}
	],
	"bufferViews":[
		{
			"buffer":0,
			"byteLength":288,
			"byteOffset":0,
			"target":34962
		},
		{
			"buffer":0,
			"byteLength":288,
			"byteOffset":288,
			"target":34962
		},
		{
			"buffer":0,
			"byteLength":192,
			"byteOffset":576,
			"target":34962
		},
		{
			"buffer":0,
			"byteLength":132,
			"byteOffset":768,
			"target":34963
		},
		{
			"buffer":0,
			"byteLength":288,
			"byteOffset":900,
			"target":34962
		},
		{
			"buffer":0,
			"byteLength":288,
			"byteOffset":1188,
			"target":34962
		},
		{
			"buffer":0,
			"byteLength":192,
			"byteOffset":1476,
			"target":34962
		},
		{
			"buffer":0,
			"byteLength":3540,
			"byteOffset":1668,
			"target":34962
		},
		{
			"buffer":0,
			"byteLength":3540,
			"byteOffset":5208,
			"target":34962
		},
		{
			"buffer":0,
			"byteLength":2360,
			"byteOffset":8748,
			"target":34962
		},
		{
			"buffer":0,
			"byteLength":2664,
			"byteOffset":11108,
			"target":34963
		},
		{
			"buffer":0,
			"byteLength":2328,
			"byteOffset":13772,
			"target":34962
		},
		{
			"buffer":0,
			"byteLength":2328,
			"byteOffset":16100,
			"target":34962
		},
		{
			"buffer":0,
			"byteLength":1552,
			"byteOffset":18428,
			"target":34962
		},
		{
			"buffer":0,
			"byteLength":1512,
			"byteOffset":19980,
			"target":34963
		},
		{
			"buffer":0,
			"byteLength":3540,
			"byteOffset":21492,
			"target":34962
		},
		{
			"buffer":0,
			"byteLength":3540,
			"byteOffset":25032,
			"target":34962
		},
		{
			"buffer":0,
			"byteLength":2360,
			"byteOffset":28572,
			"target":34962
		},
		{
			"buffer":0,
			"byteLength":3540,
			"byteOffset":30932,
			"target":34962
		},
		{
			"buffer":0,
			"byteLength":3540,
			"byteOffset":34472,
			"target":34962
		},
		{
			"buffer":0,
			"byteLength":2360,
			"byteOffset":38012,
			"target":34962
		},
		{
			"buffer":0,
			"byteLength":3540,
			"byteOffset":40372,
			"target":34962
		},
		{
			"buffer":0,
			"byteLength":3540,
			"byteOffset":43912,
			"target":34962
		},
		{
			"buffer":0,
			"byteLength":2360,
			"byteOffset":47452,
			"target":34962
		},
		{
			"buffer":0,
			"byteLength":6708,
			"byteOffset":49812,
			"target":34962
		},
		{
			"buffer":0,
			"byteLength":6708,
			"byteOffset":56520,
			"target":34962
		},
		{
			"buffer":0,
			"byteLength":4472,
			"byteOffset":63228,
			"target":34962
		},
		{
			"buffer":0,
			"byteLength":5760,
			"byteOffset":67700,
			"target":34963
		},
		{
			"buffer":0,
			"byteLength":2952,
			"byteOffset":73460,
			"target":34962
		},
		{
			"buffer":0,
			"byteLength":2952,
			"byteOffset":76412,
			"target":34962
		},
		{
			"buffer":0,
			"byteLength":1968,
			"byteOffset":79364,
			"target":34962
		},
		{
			"buffer":0,
			"byteLength":1392,
			"byteOffset":81332,
			"target":34963
		},
		{
			"buffer":0,
			"byteLength":17340,
			"byteOffset":82724,
			"target":34962
		},
		{
			"buffer":0,
			"byteLength":17340,
			"byteOffset":100064,
			"target":34962
		},
		{
			"buffer":0,
			"byteLength":11560,
			"byteOffset":117404,
			"target":34962
		},
		{
			"buffer":0,
			"byteLength":8562,
			"byteOffset":128964,
			"target":34963
		},
		{
			"buffer":0,
			"byteLength":7992,
			"byteOffset":137528,
			"target":34962
		},
		{
			"buffer":0,
			"byteLength":7992,
			"byteOffset":145520,
			"target":34962
		},
		{
			"buffer":0,
			"byteLength":5328,
			"byteOffset":153512,
			"target":34962
		},
		{
			"buffer":0,
			"byteLength":3870,
			"byteOffset":158840,
			"target":34963
		}
	],
	"buffers":[
		{
			"byteLength":162712,
			"uri":"cOMPUTERGRAFIK.bin"
		}
	]
}
